<?xml version="1.0" encoding="UTF-8" standalone="no"?>
<svg
   xmlns:dc="http://purl.org/dc/elements/1.1/"
   xmlns:cc="http://creativecommons.org/ns#"
   xmlns:rdf="http://www.w3.org/1999/02/22-rdf-syntax-ns#"
   xmlns:svg="http://www.w3.org/2000/svg"
   xmlns="http://www.w3.org/2000/svg"
   xmlns:sodipodi="http://sodipodi.sourceforge.net/DTD/sodipodi-0.dtd"
   xmlns:inkscape="http://www.inkscape.org/namespaces/inkscape"
   width="40"
   height="40"
   viewBox="0 0 40 40"
   fill="none"
   version="1.1"
   id="svg838"
   sodipodi:docname="icons.svg"
   inkscape:version="0.92.5 (2060ec1f9f, 2020-04-08)">
  <metadata
     id="metadata844">
    <rdf:RDF>
      <cc:Work
         rdf:about="">
        <dc:format>image/svg+xml</dc:format>
        <dc:type
           rdf:resource="http://purl.org/dc/dcmitype/StillImage" />
        <dc:title />
      </cc:Work>
    </rdf:RDF>
  </metadata>
  <defs
     id="defs842" />
  <sodipodi:namedview
     pagecolor="#ffffff"
     bordercolor="#666666"
     borderopacity="1"
     objecttolerance="10"
     gridtolerance="10"
     guidetolerance="10"
     inkscape:pageopacity="0"
     inkscape:pageshadow="2"
     inkscape:window-width="2560"
     inkscape:window-height="1391"
     id="namedview840"
     showgrid="false"
     inkscape:zoom="1.8109375"
     inkscape:cx="11.025397"
     inkscape:cy="-23.835925"
     inkscape:window-x="0"
     inkscape:window-y="0"
     inkscape:window-maximized="1"
     inkscape:current-layer="svg838" />
  <g
     id="g1071"
     transform="matrix(0.49999997,0,0,0.49999997,-239.10292,122.8133)"
     inkscape:export-filename="/tmp/icons/child_birthday.png"
     inkscape:export-xdpi="300"
     inkscape:export-ydpi="300">
    <circle
       inkscape:export-ydpi="100"
       inkscape:export-xdpi="100"
       inkscape:export-filename="/tmp/icons/birthday.png"
       style="fill:#ffd9ec;stroke-width:2"
       id="circle834"
       r="40"
       cy="0"
       cx="40" />
    <path
       style="fill:#ff0080;stroke-width:2"
       inkscape:connector-curvature="0"
       id="path836"
       d="m 40,-10 c 1.85,0 3.3334,-1.5 3.3334,-3.3334 0,-0.6332 -0.1668,-1.2166 -0.4834,-1.7166 L 40,-20 l -2.85,4.95 c -0.3166,0.5 -0.4834,1.0834 -0.4834,1.7166 0,1.8334 1.5,3.3334 3.3334,3.3334 z m 10,5 H 41.6666 V -8.3334 H 38.3334 V -5 H 30 c -2.7666,0 -5,2.2334 -5,5 v 15 c 0,0.9166 0.75,1.6666 1.6666,1.6666 H 53.3334 C 54.25,16.6666 55,15.9166 55,15 V 0 c 0,-2.7666 -2.2334,-5 -5,-5 z m 1.6666,18.3334 H 28.3334 v -5 c 1.5,-0.0168 2.9332,-0.6168 4,-1.6834 L 34.15,4.8666 35.9334,6.65 c 2.1832,2.1834 5.9832,2.1666 8.15,0 l 1.8,-1.7834 1.7832,1.7834 c 1.0668,1.0666 2.5,1.6666 4,1.6834 z m 0,-7.5 c -0.85,-0.0168 -1.65,-0.3334 -2.25,-0.95 l -3.55,-3.55 -3.5666,3.55 c -1.2334,1.2332 -3.3834,1.2332 -4.6166,0 l -3.55,-3.55 -3.5668,3.55 c -0.5832,0.6 -1.3832,0.9332 -2.2332,0.95 V 0 c 0,-0.9166 0.75,-1.6666 1.6666,-1.6666 h 20 c 0.9166,0 1.6666,0.75 1.6666,1.6666 z" />
  </g>
  <g
     id="g998"
     inkscape:export-filename="/tmp/icons/wedding_anniversary.png"
     inkscape:export-xdpi="300"
     inkscape:export-ydpi="300"
     transform="matrix(0.49999997,0,0,0.49999997,-166.97026,33.885608)">
    <g
       inkscape:export-ydpi="100"
       inkscape:export-xdpi="100"
       inkscape:export-filename="/tmp/icons/wedding_anniversary.png"
       transform="matrix(2,0,0,2,-144.26532,-34.544804)"
       id="g929"
       style="fill:none">
      <circle
         style="fill:#ffd9ec"
         cx="20"
         cy="20"
         r="20"
         id="circle915" />
      <path
         style="fill:#ff0080"
         inkscape:connector-curvature="0"
         d="m 19.9999,18.3334 -3.3333,-4.6667 1.3333,-2 h 4 l 1.3334,2 z m 2.9167,-2.6667 -1,1.4167 c 1.8333,0.75 3.0833,2.5 3.0833,4.5833 0,1.3261 -0.5268,2.5978 -1.4644,3.5355 -0.9377,0.9377 -2.2095,1.4645 -3.5356,1.4645 -1.3261,0 -2.5978,-0.5268 -3.5355,-1.4645 -0.9377,-0.9377 -1.4645,-2.2094 -1.4645,-3.5355 0,-2.0833 1.25,-3.8333 3.0834,-4.5833 l -1,-1.4167 c -2.25,1.0833 -3.75,3.3333 -3.75,6 0,1.7681 0.7023,3.4638 1.9526,4.714 1.2502,1.2503 2.9459,1.9527 4.714,1.9527 1.7681,0 3.4638,-0.7024 4.7141,-1.9527 1.2502,-1.2502 1.9526,-2.9459 1.9526,-4.714 0,-2.6667 -1.5,-4.9167 -3.75,-6 z"
         id="path917" />
    </g>
  </g>
  <g
     id="g1077"
     transform="matrix(0.49999997,0,0,0.49999997,-285.67146,80.10937)"
     inkscape:export-filename="/tmp/icons/home_anniversary.png"
     inkscape:export-xdpi="300"
     inkscape:export-ydpi="300">
    <g
       inkscape:export-ydpi="100"
       inkscape:export-xdpi="100"
       inkscape:export-filename="/tmp/icons/home_anniversary.png"
       transform="matrix(2,0,0,2,93.137085,-40.792234)"
       id="g993"
       style="fill:none">
      <circle
         style="fill:#ffd9ec"
         cx="20"
         cy="20"
         r="20"
         id="circle976" />
      <path
         style="clip-rule:evenodd;fill:#ff0080;fill-rule:evenodd"
         inkscape:connector-curvature="0"
         d="M 11.6667,20 20.0001,11.6666 28.3334,20 h -1.6667 v 7.5 H 13.3334 V 20 Z m 13.3334,-0.8334 -5,-5 -5,5 v 6.6667 h 10 z"
         id="path978" />
      <path
         style="fill:#ff0080"
         inkscape:connector-curvature="0"
         d="M 20.0001,24.4166 19.5001,24 c -0.1263,-0.12 -0.2497,-0.2366 -0.3699,-0.3502 -1.4669,-1.3861 -2.4635,-2.3998 -2.4635,-3.4832 0,-1.0833 0.8334,-1.8333 1.8334,-1.8333 0.5833,0 1.1666,0.25 1.5,0.6667 0.3333,-0.4167 0.9166,-0.6667 1.5,-0.6667 1,0 1.8333,0.75 1.8333,1.8333 0,1.0834 -0.9966,2.0971 -2.4634,3.4832 C 20.7497,23.7634 20.6263,23.88 20.5001,24 Z"
         id="path980" />
    </g>
  </g>
  <g
     style="fill:none"
     id="g1067"
     transform="translate(-239.10292,-26.486839)"
     inkscape:export-filename="/tmp/icons/listing.png"
     inkscape:export-xdpi="300"
     inkscape:export-ydpi="300">
    <circle
       id="circle1047"
       r="20"
       cy="20"
       cx="20"
       style="fill:#e7e9ec" />
    <path
       id="path1049"
       d="m 24.1666,22.5 h 1.6667 v 1.6667 h -1.6667 z m 0,-3.3333 h 1.6667 v 1.6667 h -1.6667 z m 0,-3.3333 h 1.6667 V 17.5 h -1.6667 z m -2.7166,0 1.05,0.7 v -0.7 z"
       inkscape:connector-curvature="0"
       style="fill:#000000" />
    <path
       id="path1051"
       d="m 18.3333,12.5 v 1.2583 l 1.6666,1.1084 v -0.7 h 7.5 V 25.8333 H 24.1666 V 27.5 h 5 v -15 z"
       inkscape:connector-curvature="0"
       style="fill:#000000" />
    <path
       id="path1053"
       d="m 16.8083,14.75 5.6916,3.7917 V 27.5 H 10.8333 v -8.7667 z m 1.525,11.0833 h 2.5 V 19.3 l -4.025,-2.5583 -4.3084,2.7416 v 6.35 h 2.5 v -5 h 3.3334 z"
       inkscape:connector-curvature="0"
       style="fill:#000000" />
  </g>
  <path
     style="fill:#00b286"
     inkscape:connector-curvature="0"
     d="m -93.472419,94.914716 5.59,5.590004 1.41,-1.420003 -5.58,-5.58 z m 21.82999,-7.830039 -10.58,10.59004 -4.15999,-4.17 -1.43,1.409999 5.58999,5.590004 12,-12.000043 z m -4.24,1.42 -1.41,-1.42 -6.35,6.350039 1.42,1.41 z"
     id="path1163"
     inkscape:export-filename="/tmp/icons/delivered.png"
     inkscape:export-xdpi="300"
     inkscape:export-ydpi="300" />
  <path
     style="fill:#000000"
     inkscape:connector-curvature="0"
     d="m -93.669702,67.884572 6.38,5.37 -0.88,0.18 -0.64,0.12 c -0.63,0.13 -0.99,0.83 -0.71,1.4 l 0.27,0.58 1.36,2.940005 -1.42,0.66 -1.36,-2.930005 -0.26,-0.58 c -0.27,-0.59 -1.02,-0.77 -1.52,-0.36 l -0.51,0.4 -0.71,0.57 z m -0.74,-2.31 c -0.202,0 -0.395,0.08007 -0.537,0.2226 -0.143,0.14253 -0.223,0.33584 -0.223,0.5374 v 11.449995 c 0,0.42 0.34,0.76001 0.76,0.76001 0.19,0 0.35,-0.06 0.48,-0.16 l 1.91,-1.550005 1.66,3.620005 c 0.13,0.27 0.4,0.43 0.69,0.43 0.11,0 0.22,0 0.33,-0.08 l 2.76,-1.28 c 0.38,-0.18 0.56,-0.64 0.36,-1.01 l -1.67,-3.630005 2.41,-0.45 c 0.16,-0.05 0.31,-0.12 0.43,-0.26 0.27,-0.32 0.23,-0.79 -0.12,-1.08 l -8.74,-7.35 -0.01,0.01 c -0.13,-0.11 -0.3,-0.18 -0.49,-0.18 z m 4.24,1.31 v -2 h 5 v 2 z m -1.17,-5.24 2.83,-2.83 1.41,1.41 -2.83,2.83 z m -3.83,-4.76 h 2 v 5 h -2 z m -6.069998,14.66 2.829998,-2.83 1.41,1.41 -2.83,2.83 z m 0,-11.32 1.409998,-1.41 2.83,2.83 -1.41,1.41 z m 3.069998,6.66 h -4.999998 v -2 h 4.999998 z"
     id="path1165"
     inkscape:export-filename="/tmp/icons/clicked.png"
     inkscape:export-xdpi="300"
     inkscape:export-ydpi="300" />
  <path
     style="fill:#0945eb"
     inkscape:connector-curvature="0"
     d="m -81.847424,40.184472 c 0.7956,0 1.5587,0.31607 2.1213,0.87868 0.5626,0.56262 0.8787,1.32572 0.8787,2.12132 0,0.7956 -0.3161,1.5587 -0.8787,2.1213 -0.5626,0.5626 -1.3257,0.8787 -2.1213,0.8787 -0.7956,0 -1.5587,-0.3161 -2.1213,-0.8787 -0.5626,-0.562602 -0.8787,-1.3257 -0.8787,-2.1213 0,-0.7956 0.3161,-1.5587 0.8787,-2.12132 0.5626,-0.56261 1.3257,-0.87868 2.1213,-0.87868 z m 0,-4.5 c 5,0 9.27,3.11 11,7.5 -1.73,4.39 -6,7.5 -11,7.5 -5,0 -9.27,-3.11 -11,-7.5 1.73,-4.39 6,-7.5 11,-7.5 z m -8.82,7.5 c 1.65,3.36 5.06,5.5 8.82,5.5 3.76,0 7.17,-2.14 8.82,-5.5 -1.65,-3.36 -5.06,-5.5 -8.82,-5.5 -3.76,0 -7.17,2.14 -8.82,5.5 z"
     id="path1167"
     inkscape:export-filename="/tmp/icons/opened.png"
     inkscape:export-xdpi="300"
     inkscape:export-ydpi="300" />
  <g
     style="fill:none"
     id="g1226"
     transform="translate(-241.78383,148.46282)"
     inkscape:export-filename="/tmp/icons/email.png"
     inkscape:export-xdpi="300"
     inkscape:export-ydpi="300">
    <circle
       id="circle1212"
       r="20"
       cy="20"
       cx="20"
       style="fill:#e7e9ec" />
    <path
       id="path1214"
       d="m 28.3334,15 c 0,-0.9166 -0.75,-1.6666 -1.6667,-1.6666 H 13.3334 c -0.9167,0 -1.6667,0.75 -1.6667,1.6666 v 10 c 0,0.9167 0.75,1.6667 1.6667,1.6667 h 13.3333 c 0.9167,0 1.6667,-0.75 1.6667,-1.6667 z M 26.6667,15 20.0001,19.1667 13.3334,15 Z m 0,10 H 13.3334 v -8.3333 l 6.6667,4.1667 6.6666,-4.1667 z"
       inkscape:connector-curvature="0"
       style="fill:#000000" />
  </g>
  <path
     style="fill:#f44336"
     inkscape:connector-curvature="0"
     d="m -73.403331,56.884572 -5.27,5.27 v 7.459999 l 5.27,5.270001 h 7.46 c 1.77,-1.76 5.27,-5.270001 5.27,-5.270001 v -7.459999 l -5.27,-5.27 z m 0.83,2 h 5.8 l 4.1,4.1 v 5.8 l -4.1,4.1 h -5.8 l -4.1,-4.1 v -5.8 z m 1.9,10 h 2 v 2 h -2 z m 0,-8 h 2 v 6 h -2 z"
     id="path1291"
     inkscape:export-filename="/tmp/icons/unsubscribed.png"
     inkscape:export-xdpi="300"
     inkscape:export-ydpi="300" />
  <path
     style="fill:#ff9800"
     inkscape:connector-curvature="0"
     d="m -74.847423,16.894372 -1.409999,-1.409999 -5.590001,5.589999 -5.59,-5.59 -1.410002,1.41 5.590003,5.59 -5.590003,5.59 1.410002,1.41 5.59,-5.59 5.590001,5.59 1.409999,-1.41 -5.59,-5.59 z"
     id="path1293"
     inkscape:export-filename="/tmp/icons/failed.png"
     inkscape:export-xdpi="300"
     inkscape:export-ydpi="300" />
  <g
     id="g956"
     inkscape:export-filename="/tmp/phone.png"
     inkscape:export-xdpi="300"
     inkscape:export-ydpi="300">
    <circle
       id="circle924"
       r="20"
       cy="178.05005"
       cx="-100.20362"
       style="fill:#e7e9ec" />
    <path
       id="path926"
       d="m -93.53692,180.96675 c -1,0 -2.0834,-0.1667 -3,-0.5 -0.0834,0 -0.1667,0 -0.25,0 -0.25,0 -0.4167,0.0833 -0.5834,0.25 l -1.8333,1.8333 c -2.3333,-1.25 -4.3333,-3.1667 -5.5,-5.5 l 1.8333,-1.8333 c 0.25,-0.25 0.3334,-0.5834 0.1667,-0.8334 -0.25,-0.9166 -0.4167,-2 -0.4167,-3 0,-0.4166 -0.4166,-0.8333 -0.8333,-0.8333 h -2.9167 c -0.4166,0 -0.8333,0.4167 -0.8333,0.8333 0,7.8334 6.3333,14.1667 14.1667,14.1667 0.4166,0 0.8333,-0.4167 0.8333,-0.8333 v -2.9167 c 0,-0.4167 -0.4167,-0.8333 -0.8333,-0.8333 z m -12.5,-8.75 h 1.25 c 0.0833,0.75 0.25,1.5 0.4166,2.1666 l -1,1 c -0.3333,-1 -0.5833,-2.0833 -0.6666,-3.1666 z m 11.6666,11.6666 c -1.0833,-0.0833 -2.1666,-0.3333 -3.1666,-0.6666 l 1,-1 c 0.6666,0.1666 1.4166,0.3333 2.1666,0.3333 z"
       inkscape:connector-curvature="0"
       style="fill:#000000" />
  </g>
  <g
     id="g952"
     inkscape:export-filename="/tmp/gift.png"
     inkscape:export-xdpi="300"
     inkscape:export-ydpi="300">
    <circle
       id="circle928"
       r="20"
       cy="178.05005"
       cx="-52.203621"
       style="fill:#e7e9ec" />
    <path
       id="path930"
       d="m -44.62782,178.05005 v 6 c 0,0.3978 -0.1596,0.7794 -0.4437,1.0607 -0.2842,0.2813 -0.6696,0.4393 -1.0714,0.4393 h -12.1212 c -0.4019,0 -0.7873,-0.158 -1.0714,-0.4393 -0.2841,-0.2813 -0.4438,-0.6629 -0.4438,-1.0607 v -6 c -0.2009,0 -0.3936,-0.079 -0.5357,-0.2197 -0.142,-0.1406 -0.2219,-0.3314 -0.2219,-0.5303 v -2.25 c 0,-0.3978 0.1597,-0.7794 0.4438,-1.0607 0.2842,-0.2813 0.6696,-0.4393 1.0714,-0.4393 h 2.4015 c -0.0833,-0.2325 -0.1288,-0.4875 -0.1288,-0.75 0,-0.5967 0.2395,-1.169 0.6657,-1.591 0.4262,-0.4219 1.0043,-0.659 1.6071,-0.659 0.7575,0 1.4242,0.375 1.8409,0.93 v -0.007 l 0.4318,0.5775 0.4318,-0.5775 v 0.007 c 0.4167,-0.555 1.0833,-0.93 1.8409,-0.93 0.6028,0 1.1809,0.2371 1.6071,0.659 0.4262,0.422 0.6656,0.9943 0.6656,1.591 0,0.2625 -0.0454,0.5175 -0.1288,0.75 h 2.4016 c 0.4018,0 0.7872,0.158 1.0713,0.4393 0.2842,0.2813 0.4438,0.6629 0.4438,1.0607 v 2.25 c 0,0.1989 -0.0798,0.3897 -0.2219,0.5303 -0.142,0.1407 -0.3347,0.2197 -0.5357,0.2197 z m -13.6363,6 h 5.303 v -6 h -5.303 z m 12.1212,0 v -6 h -5.303 v 6 z m -8.3333,-12 c -0.201,0 -0.3937,0.079 -0.5357,0.2197 -0.1421,0.1406 -0.2219,0.3314 -0.2219,0.5303 0,0.1989 0.0798,0.3897 0.2219,0.5303 0.142,0.1407 0.3347,0.2197 0.5357,0.2197 0.2009,0 0.3936,-0.079 0.5356,-0.2197 0.1421,-0.1406 0.2219,-0.3314 0.2219,-0.5303 0,-0.1989 -0.0798,-0.3897 -0.2219,-0.5303 -0.142,-0.1407 -0.3347,-0.2197 -0.5356,-0.2197 z m 4.5454,0 c -0.2009,0 -0.3936,0.079 -0.5357,0.2197 -0.1421,0.1406 -0.2219,0.3314 -0.2219,0.5303 0,0.1989 0.0798,0.3897 0.2219,0.5303 0.1421,0.1407 0.3348,0.2197 0.5357,0.2197 0.2009,0 0.3936,-0.079 0.5357,-0.2197 0.1421,-0.1406 0.2219,-0.3314 0.2219,-0.5303 0,-0.1989 -0.0798,-0.3897 -0.2219,-0.5303 -0.1421,-0.1407 -0.3348,-0.2197 -0.5357,-0.2197 z m -9.0909,3 v 1.5 h 6.0606 v -1.5 z m 7.5758,0 v 1.5 h 6.0606 v -1.5 z"
       inkscape:connector-curvature="0"
       style="fill:#000000" />
  </g>
</svg>
